# xmcd
#
# Track frame offsets:
#	150
#	12465
#	27337
#	45762
#	63327
#	79755
#	93587
#	106622
#	124892
#	144402
#	158240
#	173265
#	189137
#	206685
#	220632
#
# Disc length: 3167 seconds
#
# Revision: 1
# Processed by: cddbd v1.5.1PL2 Copyright (c) Steve Scherf et al.
# Submitted via: audiograbber 1.83.01
#
DISCID=b50c5d0f
DTITLE=Sound Choice - SC8213
DYEAR=1900
DGENRE=Karaoke Country
TTITLE0=Gill, Vince - Take Your Memory With You
TTITLE1=Wariner, Steve - If I Didn'T Love You
TTITLE2=Van Shelton, Ricky - Backroads
TTITLE3=Mcentire, Reba - You Lie
TTITLE4=Ketchum, Hal - Sure Love
TTITLE5=Restless Heart - Mending Fences
TTITLE6=Anderson, John - I Fell In The Water
TTITLE7=Travis, Randy - Hard Rock Bottom Of Your Heart
TTITLE8=Stone, Doug - Come In Out Of The Pain
TTITLE9=Travis, Randy - Cowboy Boogie
TTITLE10=Wynette, Tammy and Judd, Wynonna - Girl Thang
TTITLE11=Alabama - Down Home
TTITLE12=Judds - Born To Be Blue
TTITLE13=Mcentire, Reba - Climb That Mountain High
TTITLE14=Van Shelton, Ricky - Life'S Little Ups And Downs
EXTD=
EXTT0=
EXTT1=
EXTT2=
EXTT3=
EXTT4=
EXTT5=
EXTT6=
EXTT7=
EXTT8=
EXTT9=
EXTT10=
EXTT11=
EXTT12=
EXTT13=
EXTT14=
PLAYORDER=
